<?xml version="1.0" encoding="utf-8"?>
<!-- Generator: Adobe Illustrator 23.0.6, SVG Export Plug-In . SVG Version: 6.00 Build 0)  -->
<svg version="1.1" id="Calque_1" xmlns="http://www.w3.org/2000/svg" xmlns:xlink="http://www.w3.org/1999/xlink" x="0px" y="0px"
	 viewBox="0 0 200 200" style="enable-background:new 0 0 200 200;" xml:space="preserve">
<style type="text/css">
	.st0{fill:#00C6ED;}
</style>
<path class="st0" d="M71.8,46.4h25.6v60.7c0,11.5-4.1,21.4-12.2,29.6c-8.2,8.2-18,12.3-29.5,12.3H21.8v-25.6h33.8
	c4.4,0,8.2-1.6,11.4-4.7c3.2-3.1,4.8-7,4.8-11.5V46.4z"/>
<path d="M132.7,121.8c1,1,2.2,1.5,3.6,1.5H185V149h-48.7c-8.4,0-15.7-3-21.7-9.1c-6-6-9.1-13.3-9.1-21.7V46.5h25.7v71.7
	C131.3,119.6,131.7,120.8,132.7,121.8z"/>
</svg>
