<?xml version="1.0" encoding="utf-8"?>
<!-- Generator: Adobe Illustrator 23.0.6, SVG Export Plug-In . SVG Version: 6.00 Build 0)  -->
<svg version="1.1" id="Calque_1" xmlns="http://www.w3.org/2000/svg" xmlns:xlink="http://www.w3.org/1999/xlink" x="0px" y="0px"
	 viewBox="0 0 200 200" style="enable-background:new 0 0 200 200;" xml:space="preserve">
<style type="text/css">
	.st0{fill:#00C6ED;stroke:#000000;stroke-width:3;stroke-miterlimit:10;}
</style>
<circle class="st0" cx="100" cy="101" r="79.5"/>
<path d="M69.6,79.9L35,97.1l48.8,0.3c26.8,0.1,55.7,0.2,64.2,0c14.8-0.2,15.4-0.3,16.7-1.9c3-3.8,3-11.1,0-15.1l-1.5-2L131,78.2
	L98.9,78l0.5-3.2c0.3-1.8,1.5-5.1,2.8-7.5c1.3-2.3,2.2-4.2,2.1-4.4C104.2,62.9,88.6,70.5,69.6,79.9z"/>
<path d="M36.2,112c-3.1,5.1-2.9,10.4,0.5,14.4l1.9,2.3h31.5h31.6l-0.4,3.8c-0.2,2.4-1.2,5.1-2.8,7.7c-1.4,2.2-2.2,3.9-1.8,3.8
	c0.3,0,15.9-7.8,34.7-17.2l34.2-17.2h-64l-63.9-0.1L36.2,112z"/>
</svg>
